<svg width="1200" height="675" viewBox="0 0 1200 675" fill="none" xmlns="http://www.w3.org/2000/svg">
  <defs>
    <linearGradient id="bg" x1="0" y1="0" x2="1200" y2="675" gradientUnits="userSpaceOnUse">
      <stop stop-color="#0F172A"/>
      <stop offset="1" stop-color="#1D4ED8"/>
    </linearGradient>
    <linearGradient id="card" x1="190" y1="140" x2="1010" y2="560" gradientUnits="userSpaceOnUse">
      <stop stop-color="#1E293B"/>
      <stop offset="1" stop-color="#0B1220"/>
    </linearGradient>
  </defs>
  <rect width="1200" height="675" fill="url(#bg)"/>
  <circle cx="1070" cy="110" r="140" fill="#38BDF8" fill-opacity="0.16"/>
  <circle cx="120" cy="585" r="120" fill="#6366F1" fill-opacity="0.18"/>
  <rect x="170" y="120" width="860" height="430" rx="28" fill="url(#card)" stroke="#334155" stroke-width="2"/>
  <rect x="220" y="190" width="360" height="220" rx="18" fill="#0F172A" stroke="#1E40AF"/>
  <rect x="250" y="225" width="120" height="20" rx="10" fill="#60A5FA"/>
  <rect x="250" y="260" width="290" height="16" rx="8" fill="#334155"/>
  <rect x="250" y="288" width="230" height="16" rx="8" fill="#334155"/>
  <rect x="250" y="333" width="150" height="44" rx="12" fill="#2563EB"/>
  <rect x="620" y="190" width="360" height="96" rx="18" fill="#0B1220" stroke="#1D4ED8"/>
  <text x="650" y="248" fill="#E2E8F0" font-family="Arial, Helvetica, sans-serif" font-size="34" font-weight="700">$ Loan Approved</text>
  <rect x="620" y="310" width="360" height="100" rx="18" fill="#0B1220" stroke="#1D4ED8"/>
  <text x="650" y="369" fill="#93C5FD" font-family="Arial, Helvetica, sans-serif" font-size="30" font-weight="700">Credit Score: 782</text>
  <text x="170" y="85" fill="#BFDBFE" font-family="Arial, Helvetica, sans-serif" font-size="34" font-weight="700">FinTech Loan &amp; Credit Platform</text>
</svg>
