<svg width="1200" height="675" viewBox="0 0 1200 675" fill="none" xmlns="http://www.w3.org/2000/svg">
  <defs>
    <linearGradient id="bg3" x1="0" y1="0" x2="1200" y2="675" gradientUnits="userSpaceOnUse">
      <stop stop-color="#111827"/>
      <stop offset="1" stop-color="#4C1D95"/>
    </linearGradient>
  </defs>
  <rect width="1200" height="675" fill="url(#bg3)"/>
  <circle cx="1040" cy="120" r="145" fill="#A78BFA" fill-opacity="0.17"/>
  <circle cx="130" cy="570" r="120" fill="#60A5FA" fill-opacity="0.16"/>
  <rect x="130" y="120" width="940" height="430" rx="28" fill="#0B1020" stroke="#374151" stroke-width="2"/>
  <text x="130" y="82" fill="#DDD6FE" font-family="Arial, Helvetica, sans-serif" font-size="34" font-weight="700">CI/CD Delivery Blueprint</text>

  <rect x="190" y="250" width="200" height="120" rx="16" fill="#1E1B4B" stroke="#6366F1"/>
  <text x="250" y="320" fill="#C4B5FD" font-family="Arial, Helvetica, sans-serif" font-size="28" font-weight="700">Code</text>

  <rect x="455" y="250" width="200" height="120" rx="16" fill="#1E1B4B" stroke="#6366F1"/>
  <text x="515" y="320" fill="#C4B5FD" font-family="Arial, Helvetica, sans-serif" font-size="28" font-weight="700">Build</text>

  <rect x="720" y="250" width="200" height="120" rx="16" fill="#1E1B4B" stroke="#6366F1"/>
  <text x="790" y="320" fill="#C4B5FD" font-family="Arial, Helvetica, sans-serif" font-size="28" font-weight="700">Test</text>

  <path d="M390 310H445" stroke="#A78BFA" stroke-width="10" stroke-linecap="round"/>
  <path d="M655 310H710" stroke="#A78BFA" stroke-width="10" stroke-linecap="round"/>
  <path d="M920 310H965" stroke="#A78BFA" stroke-width="10" stroke-linecap="round"/>

  <rect x="965" y="250" width="120" height="120" rx="16" fill="#1E1B4B" stroke="#6366F1"/>
  <text x="987" y="320" fill="#C4B5FD" font-family="Arial, Helvetica, sans-serif" font-size="22" font-weight="700">Ship</text>

  <rect x="190" y="405" width="895" height="90" rx="14" fill="#0F172A" stroke="#334155"/>
  <text x="225" y="460" fill="#E9D5FF" font-family="Arial, Helvetica, sans-serif" font-size="28" font-weight="700">Jenkins  "  Docker  "  Kubernetes  "  AWS</text>
</svg>
