<svg xmlns="http://www.w3.org/2000/svg" viewBox="0 0 800 450" fill="none">
  <defs>
    <linearGradient id="fg-bg" x1="0" y1="0" x2="800" y2="450" gradientUnits="userSpaceOnUse">
      <stop offset="0%" stop-color="#0f1219"/>
      <stop offset="100%" stop-color="#1a1f2e"/>
    </linearGradient>
    <linearGradient id="fg-accent" x1="0" y1="0" x2="1" y2="1">
      <stop offset="0%" stop-color="#4ade80"/>
      <stop offset="100%" stop-color="#22d3ee"/>
    </linearGradient>
    <linearGradient id="fg-accent2" x1="0" y1="0" x2="1" y2="1">
      <stop offset="0%" stop-color="#a78bfa"/>
      <stop offset="100%" stop-color="#818cf8"/>
    </linearGradient>
    <linearGradient id="fg-orange" x1="0" y1="0" x2="1" y2="1">
      <stop offset="0%" stop-color="#fb923c"/>
      <stop offset="100%" stop-color="#f97316"/>
    </linearGradient>
  </defs>

  <rect width="800" height="450" fill="url(#fg-bg)"/>

  <g opacity="0.06" stroke="#ffffff" stroke-width="0.5">
    <line x1="0" y1="50" x2="800" y2="50"/><line x1="0" y1="100" x2="800" y2="100"/>
    <line x1="0" y1="150" x2="800" y2="150"/><line x1="0" y1="200" x2="800" y2="200"/>
    <line x1="0" y1="250" x2="800" y2="250"/><line x1="0" y1="300" x2="800" y2="300"/>
    <line x1="0" y1="350" x2="800" y2="350"/><line x1="0" y1="400" x2="800" y2="400"/>
    <line x1="100" y1="0" x2="100" y2="450"/><line x1="200" y1="0" x2="200" y2="450"/>
    <line x1="300" y1="0" x2="300" y2="450"/><line x1="400" y1="0" x2="400" y2="450"/>
    <line x1="500" y1="0" x2="500" y2="450"/><line x1="600" y1="0" x2="600" y2="450"/>
    <line x1="700" y1="0" x2="700" y2="450"/>
  </g>

  <rect x="120" y="60" width="180" height="330" rx="20" fill="#1e2433" stroke="#2d3548" stroke-width="2"/>
  <rect x="132" y="85" width="156" height="280" rx="4" fill="#111827"/>

  <rect x="145" y="95" width="130" height="110" rx="6" fill="#1a2235"/>
  <circle cx="210" cy="150" r="30" stroke="url(#fg-accent)" stroke-width="2" fill="none" stroke-dasharray="6 3"/>
  <circle cx="210" cy="150" r="20" stroke="url(#fg-accent)" stroke-width="1" fill="none" opacity="0.5"/>
  <line x1="210" y1="130" x2="210" y2="170" stroke="url(#fg-accent)" stroke-width="1" opacity="0.7"/>
  <line x1="190" y1="150" x2="230" y2="150" stroke="url(#fg-accent)" stroke-width="1" opacity="0.7"/>

  <ellipse cx="210" cy="150" rx="14" ry="16" fill="url(#fg-orange)" opacity="0.8"/>
  <path d="M210 134 Q215 126 220 130" stroke="#4ade80" stroke-width="2" fill="none"/>

  <rect x="150" y="215" width="120" height="24" rx="4" fill="#4ade80" opacity="0.15"/>
  <text x="210" y="232" font-family="monospace" font-size="11" fill="#4ade80" text-anchor="middle">Apple - 87%</text>

  <rect x="150" y="252" width="120" height="6" rx="3" fill="#1f2937"/>
  <rect x="150" y="252" width="85" height="6" rx="3" fill="url(#fg-accent)"/>
  <text x="150" y="248" font-family="sans-serif" font-size="8" fill="#9ca3af">Calories</text>

  <rect x="150" y="272" width="120" height="6" rx="3" fill="#1f2937"/>
  <rect x="150" y="272" width="55" height="6" rx="3" fill="url(#fg-accent2)"/>
  <text x="150" y="268" font-family="sans-serif" font-size="8" fill="#9ca3af">Protein</text>

  <rect x="150" y="292" width="120" height="6" rx="3" fill="#1f2937"/>
  <rect x="150" y="292" width="95" height="6" rx="3" fill="url(#fg-orange)"/>
  <text x="150" y="288" font-family="sans-serif" font-size="8" fill="#9ca3af">Carbs</text>

  <rect x="150" y="312" width="120" height="6" rx="3" fill="#1f2937"/>
  <rect x="150" y="312" width="30" height="6" rx="3" fill="#f472b6"/>
  <text x="150" y="308" font-family="sans-serif" font-size="8" fill="#9ca3af">Fat</text>

  <g transform="translate(420, 80)">
    <circle cx="0" cy="40" r="10" fill="#4ade80" opacity="0.3" stroke="#4ade80" stroke-width="1"/>
    <circle cx="0" cy="90" r="10" fill="#4ade80" opacity="0.3" stroke="#4ade80" stroke-width="1"/>
    <circle cx="0" cy="140" r="10" fill="#4ade80" opacity="0.3" stroke="#4ade80" stroke-width="1"/>
    <circle cx="0" cy="190" r="10" fill="#4ade80" opacity="0.3" stroke="#4ade80" stroke-width="1"/>
    <circle cx="0" cy="240" r="10" fill="#4ade80" opacity="0.3" stroke="#4ade80" stroke-width="1"/>

    <circle cx="120" cy="65" r="10" fill="#818cf8" opacity="0.3" stroke="#818cf8" stroke-width="1"/>
    <circle cx="120" cy="120" r="10" fill="#818cf8" opacity="0.3" stroke="#818cf8" stroke-width="1"/>
    <circle cx="120" cy="175" r="10" fill="#818cf8" opacity="0.3" stroke="#818cf8" stroke-width="1"/>
    <circle cx="120" cy="230" r="10" fill="#818cf8" opacity="0.3" stroke="#818cf8" stroke-width="1"/>

    <circle cx="240" cy="90" r="10" fill="#f472b6" opacity="0.3" stroke="#f472b6" stroke-width="1"/>
    <circle cx="240" cy="150" r="10" fill="#f472b6" opacity="0.3" stroke="#f472b6" stroke-width="1"/>
    <circle cx="240" cy="210" r="10" fill="#f472b6" opacity="0.3" stroke="#f472b6" stroke-width="1"/>

    <circle cx="340" cy="140" r="14" fill="url(#fg-accent)" opacity="0.25" stroke="#4ade80" stroke-width="1.5"/>

    <g stroke="#4ade80" stroke-width="0.5" opacity="0.2">
      <line x1="10" y1="40" x2="110" y2="65"/><line x1="10" y1="40" x2="110" y2="120"/>
      <line x1="10" y1="90" x2="110" y2="65"/><line x1="10" y1="90" x2="110" y2="120"/><line x1="10" y1="90" x2="110" y2="175"/>
      <line x1="10" y1="140" x2="110" y2="120"/><line x1="10" y1="140" x2="110" y2="175"/>
      <line x1="10" y1="190" x2="110" y2="175"/><line x1="10" y1="190" x2="110" y2="230"/>
      <line x1="10" y1="240" x2="110" y2="175"/><line x1="10" y1="240" x2="110" y2="230"/>
    </g>
    <g stroke="#818cf8" stroke-width="0.5" opacity="0.2">
      <line x1="130" y1="65" x2="230" y2="90"/><line x1="130" y1="65" x2="230" y2="150"/>
      <line x1="130" y1="120" x2="230" y2="90"/><line x1="130" y1="120" x2="230" y2="150"/>
      <line x1="130" y1="175" x2="230" y2="150"/><line x1="130" y1="175" x2="230" y2="210"/>
      <line x1="130" y1="230" x2="230" y2="150"/><line x1="130" y1="230" x2="230" y2="210"/>
    </g>
    <g stroke="#f472b6" stroke-width="0.5" opacity="0.25">
      <line x1="250" y1="90" x2="326" y2="140"/>
      <line x1="250" y1="150" x2="326" y2="140"/>
      <line x1="250" y1="210" x2="326" y2="140"/>
    </g>

    <text x="0" y="285" font-family="monospace" font-size="9" fill="#4ade80" text-anchor="middle" opacity="0.7">Input</text>
    <text x="120" y="275" font-family="monospace" font-size="9" fill="#818cf8" text-anchor="middle" opacity="0.7">Conv2D</text>
    <text x="240" y="255" font-family="monospace" font-size="9" fill="#f472b6" text-anchor="middle" opacity="0.7">Dense</text>
    <text x="340" y="180" font-family="monospace" font-size="9" fill="#4ade80" text-anchor="middle" opacity="0.7">Output</text>
  </g>

  <rect x="510" y="370" width="100" height="26" rx="6" fill="#ff6f00" opacity="0.15"/>
  <text x="560" y="388" font-family="monospace" font-size="10" fill="#ff6f00" text-anchor="middle">TensorFlow</text>

  <rect x="625" y="370" width="75" height="26" rx="6" fill="#02569B" opacity="0.15"/>
  <text x="662" y="388" font-family="monospace" font-size="10" fill="#54C5F8" text-anchor="middle">Flutter</text>

  <rect x="390" y="370" width="105" height="26" rx="6" fill="#4ade80" opacity="0.1"/>
  <text x="442" y="388" font-family="monospace" font-size="10" fill="#4ade80" text-anchor="middle">EfficientNet</text>

  <rect x="640" y="75" width="110" height="44" rx="10" fill="#4ade80" fill-opacity="0.08" stroke="#4ade80" stroke-width="1" stroke-opacity="0.3"/>
  <text x="695" y="96" font-family="sans-serif" font-size="18" font-weight="bold" fill="#4ade80" text-anchor="middle">87%</text>
  <text x="695" y="112" font-family="monospace" font-size="9" fill="#9ca3af" text-anchor="middle">accuracy</text>
</svg>
