<svg xmlns="http://www.w3.org/2000/svg" viewBox="0 0 800 450" fill="none">
  <defs>
    <linearGradient id="pm-bg" x1="0" y1="0" x2="800" y2="450" gradientUnits="userSpaceOnUse">
      <stop offset="0%" stop-color="#0f1219"/>
      <stop offset="100%" stop-color="#1a1f2e"/>
    </linearGradient>
    <linearGradient id="pm-emerald" x1="0" y1="0" x2="1" y2="1">
      <stop offset="0%" stop-color="#10b981"/>
      <stop offset="100%" stop-color="#34d399"/>
    </linearGradient>
    <linearGradient id="pm-blue" x1="0" y1="0" x2="1" y2="1">
      <stop offset="0%" stop-color="#3b82f6"/>
      <stop offset="100%" stop-color="#60a5fa"/>
    </linearGradient>
    <linearGradient id="pm-amber" x1="0" y1="0" x2="1" y2="1">
      <stop offset="0%" stop-color="#f59e0b"/>
      <stop offset="100%" stop-color="#fbbf24"/>
    </linearGradient>
    <linearGradient id="pm-violet" x1="0" y1="0" x2="1" y2="1">
      <stop offset="0%" stop-color="#8b5cf6"/>
      <stop offset="100%" stop-color="#a78bfa"/>
    </linearGradient>
  </defs>

  <rect width="800" height="450" fill="url(#pm-bg)"/>

  <g opacity="0.04" stroke="#ffffff" stroke-width="0.5">
    <line x1="0" y1="50" x2="800" y2="50"/><line x1="0" y1="100" x2="800" y2="100"/>
    <line x1="0" y1="150" x2="800" y2="150"/><line x1="0" y1="200" x2="800" y2="200"/>
    <line x1="0" y1="250" x2="800" y2="250"/><line x1="0" y1="300" x2="800" y2="300"/>
    <line x1="0" y1="350" x2="800" y2="350"/><line x1="0" y1="400" x2="800" y2="400"/>
    <line x1="100" y1="0" x2="100" y2="450"/><line x1="200" y1="0" x2="200" y2="450"/>
    <line x1="300" y1="0" x2="300" y2="450"/><line x1="400" y1="0" x2="400" y2="450"/>
    <line x1="500" y1="0" x2="500" y2="450"/><line x1="600" y1="0" x2="600" y2="450"/>
    <line x1="700" y1="0" x2="700" y2="450"/>
  </g>

  <rect x="310" y="25" width="180" height="50" rx="10" fill="#1e2433" stroke="#10b981" stroke-width="1.5"/>
  <text x="400" y="48" font-family="monospace" font-size="11" fill="#34d399" text-anchor="middle" font-weight="bold">API GATEWAY</text>
  <text x="400" y="64" font-family="monospace" font-size="8" fill="#6b7280" text-anchor="middle">Spring Cloud Gateway</text>

  <line x1="340" y1="75" x2="140" y2="135" stroke="#10b981" stroke-width="1" opacity="0.4" stroke-dasharray="4 3"/>
  <line x1="400" y1="75" x2="400" y2="135" stroke="#10b981" stroke-width="1" opacity="0.4" stroke-dasharray="4 3"/>
  <line x1="460" y1="75" x2="660" y2="135" stroke="#10b981" stroke-width="1" opacity="0.4" stroke-dasharray="4 3"/>

  <rect x="50" y="135" width="180" height="110" rx="10" fill="#1e2433" stroke="#3b82f6" stroke-width="1.5"/>
  <rect x="50" y="135" width="180" height="30" rx="10" fill="#3b82f6" opacity="0.1"/>
  <rect x="50" y="155" width="180" height="10" fill="#3b82f6" opacity="0.1"/>
  <circle cx="70" cy="150" r="8" fill="#3b82f6" opacity="0.2" stroke="#3b82f6" stroke-width="1"/>
  <text x="72" y="154" font-family="monospace" font-size="10" fill="#3b82f6" text-anchor="middle">$</text>
  <text x="145" y="154" font-family="sans-serif" font-size="11" fill="#d1d5db" font-weight="bold">Payment Service</text>
  <text x="68" y="182" font-family="monospace" font-size="8" fill="#6b7280">POST /api/pay</text>
  <text x="68" y="196" font-family="monospace" font-size="8" fill="#6b7280">GET  /api/status</text>
  <text x="68" y="210" font-family="monospace" font-size="8" fill="#6b7280">PUT  /api/refund</text>
  <rect x="62" y="225" width="50" height="12" rx="3" fill="#3b82f6" opacity="0.15"/>
  <text x="87" y="234" font-family="monospace" font-size="7" fill="#60a5fa" text-anchor="middle">Java 17</text>
  <rect x="118" y="225" width="65" height="12" rx="3" fill="#10b981" opacity="0.15"/>
  <text x="150" y="234" font-family="monospace" font-size="7" fill="#34d399" text-anchor="middle">Spring Boot</text>

  <rect x="310" y="135" width="180" height="110" rx="10" fill="#1e2433" stroke="#f59e0b" stroke-width="1.5"/>
  <rect x="310" y="135" width="180" height="30" rx="10" fill="#f59e0b" opacity="0.1"/>
  <rect x="310" y="155" width="180" height="10" fill="#f59e0b" opacity="0.1"/>
  <circle cx="330" cy="150" r="8" fill="#f59e0b" opacity="0.2" stroke="#f59e0b" stroke-width="1"/>
  <text x="330" y="153" font-family="monospace" font-size="8" fill="#f59e0b" text-anchor="middle">TX</text>
  <text x="400" y="154" font-family="sans-serif" font-size="11" fill="#d1d5db" font-weight="bold">Transaction Svc</text>
  <text x="328" y="182" font-family="monospace" font-size="8" fill="#6b7280">POST /api/txn</text>
  <text x="328" y="196" font-family="monospace" font-size="8" fill="#6b7280">GET  /api/history</text>
  <text x="328" y="210" font-family="monospace" font-size="8" fill="#6b7280">GET  /api/ledger</text>
  <rect x="322" y="225" width="50" height="12" rx="3" fill="#3b82f6" opacity="0.15"/>
  <text x="347" y="234" font-family="monospace" font-size="7" fill="#60a5fa" text-anchor="middle">Java 17</text>
  <rect x="378" y="225" width="65" height="12" rx="3" fill="#10b981" opacity="0.15"/>
  <text x="410" y="234" font-family="monospace" font-size="7" fill="#34d399" text-anchor="middle">Spring Boot</text>

  <rect x="570" y="135" width="180" height="110" rx="10" fill="#1e2433" stroke="#8b5cf6" stroke-width="1.5"/>
  <rect x="570" y="135" width="180" height="30" rx="10" fill="#8b5cf6" opacity="0.1"/>
  <rect x="570" y="155" width="180" height="10" fill="#8b5cf6" opacity="0.1"/>
  <circle cx="590" cy="150" r="8" fill="#8b5cf6" opacity="0.2" stroke="#8b5cf6" stroke-width="1"/>
  <text x="590" y="154" font-family="monospace" font-size="10" fill="#a78bfa" text-anchor="middle">*</text>
  <text x="665" y="154" font-family="sans-serif" font-size="11" fill="#d1d5db" font-weight="bold">Auth Service</text>
  <text x="588" y="182" font-family="monospace" font-size="8" fill="#6b7280">POST /auth/login</text>
  <text x="588" y="196" font-family="monospace" font-size="8" fill="#6b7280">POST /auth/token</text>
  <text x="588" y="210" font-family="monospace" font-size="8" fill="#6b7280">GET  /auth/verify</text>
  <rect x="582" y="225" width="40" height="12" rx="3" fill="#8b5cf6" opacity="0.15"/>
  <text x="602" y="234" font-family="monospace" font-size="7" fill="#a78bfa" text-anchor="middle">JWT</text>
  <rect x="628" y="225" width="55" height="12" rx="3" fill="#8b5cf6" opacity="0.15"/>
  <text x="655" y="234" font-family="monospace" font-size="7" fill="#a78bfa" text-anchor="middle">OAuth2</text>

  <line x1="230" y1="190" x2="310" y2="190" stroke="#6b7280" stroke-width="1" opacity="0.3" stroke-dasharray="3 3"/>
  <line x1="490" y1="190" x2="570" y2="190" stroke="#6b7280" stroke-width="1" opacity="0.3" stroke-dasharray="3 3"/>

  <line x1="140" y1="245" x2="140" y2="295" stroke="#3b82f6" stroke-width="1" opacity="0.3" stroke-dasharray="4 3"/>
  <line x1="400" y1="245" x2="400" y2="295" stroke="#f59e0b" stroke-width="1" opacity="0.3" stroke-dasharray="4 3"/>
  <line x1="660" y1="245" x2="660" y2="295" stroke="#8b5cf6" stroke-width="1" opacity="0.3" stroke-dasharray="4 3"/>

  <ellipse cx="140" cy="305" rx="55" ry="12" fill="#3b82f6" opacity="0.1" stroke="#3b82f6" stroke-width="1"/>
  <rect x="85" y="305" width="110" height="25" fill="#1e2433" stroke="#3b82f6" stroke-width="1"/>
  <ellipse cx="140" cy="330" rx="55" ry="12" fill="#1e2433" stroke="#3b82f6" stroke-width="1"/>
  <text x="140" y="322" font-family="monospace" font-size="9" fill="#60a5fa" text-anchor="middle">PostgreSQL</text>

  <ellipse cx="400" cy="305" rx="55" ry="12" fill="#f59e0b" opacity="0.1" stroke="#f59e0b" stroke-width="1"/>
  <rect x="345" y="305" width="110" height="25" fill="#1e2433" stroke="#f59e0b" stroke-width="1"/>
  <ellipse cx="400" cy="330" rx="55" ry="12" fill="#1e2433" stroke="#f59e0b" stroke-width="1"/>
  <text x="400" y="322" font-family="monospace" font-size="9" fill="#fbbf24" text-anchor="middle">MySQL</text>

  <ellipse cx="660" cy="305" rx="55" ry="12" fill="#8b5cf6" opacity="0.1" stroke="#8b5cf6" stroke-width="1"/>
  <rect x="605" y="305" width="110" height="25" fill="#1e2433" stroke="#8b5cf6" stroke-width="1"/>
  <ellipse cx="660" cy="330" rx="55" ry="12" fill="#1e2433" stroke="#8b5cf6" stroke-width="1"/>
  <text x="660" y="322" font-family="monospace" font-size="9" fill="#a78bfa" text-anchor="middle">Redis</text>

  <rect x="50" y="365" width="700" height="55" rx="8" fill="#2496ed" fill-opacity="0.06" stroke="#2496ed" stroke-width="1" stroke-dasharray="6 3"/>
  <text x="400" y="385" font-family="monospace" font-size="10" fill="#2496ed" text-anchor="middle" opacity="0.7">Docker Container Orchestration</text>

  <rect x="165" y="395" width="55" height="18" rx="4" fill="#2496ed" opacity="0.12"/>
  <text x="192" y="408" font-family="monospace" font-size="8" fill="#2496ed" text-anchor="middle">Docker</text>

  <rect x="230" y="395" width="75" height="18" rx="4" fill="#10b981" opacity="0.1"/>
  <text x="267" y="408" font-family="monospace" font-size="8" fill="#34d399" text-anchor="middle">Spring Boot</text>

  <rect x="315" y="395" width="50" height="18" rx="4" fill="#3b82f6" opacity="0.12"/>
  <text x="340" y="408" font-family="monospace" font-size="8" fill="#60a5fa" text-anchor="middle">Java</text>

  <rect x="375" y="395" width="75" height="18" rx="4" fill="#f59e0b" opacity="0.1"/>
  <text x="412" y="408" font-family="monospace" font-size="8" fill="#fbbf24" text-anchor="middle">REST APIs</text>

  <rect x="460" y="395" width="75" height="18" rx="4" fill="#8b5cf6" opacity="0.1"/>
  <text x="497" y="408" font-family="monospace" font-size="8" fill="#a78bfa" text-anchor="middle">FinTech</text>

  <rect x="545" y="395" width="85" height="18" rx="4" fill="#10b981" opacity="0.1"/>
  <text x="587" y="408" font-family="monospace" font-size="8" fill="#34d399" text-anchor="middle">40% faster</text>

  <rect x="625" y="40" width="130" height="44" rx="10" fill="#10b981" fill-opacity="0.08" stroke="#10b981" stroke-width="1"/>
  <text x="690" y="61" font-family="sans-serif" font-size="18" font-weight="bold" fill="#34d399" text-anchor="middle">40%</text>
  <text x="690" y="76" font-family="monospace" font-size="8" fill="#6b7280" text-anchor="middle">faster deploys</text>
</svg>
